<svg xmlns="http://www.w3.org/2000/svg" xmlns:xlink="http://www.w3.org/1999/xlink" width="106" height="79" version="1.1" viewBox="0 0 106 79"><title>Group 12</title><desc>Created with Sketch.</desc><defs><linearGradient id="linearGradient-1" x1="50%" x2="50%" y1="0%" y2="100%"><stop offset="0%" stop-color="#A293A7"/><stop offset="100%" stop-color="#695A6E"/></linearGradient><linearGradient id="linearGradient-2" x1="50%" x2="50%" y1="0%" y2="100%"><stop offset="0%" stop-color="#C1E3FF"/><stop offset="100%" stop-color="#BBC6F8"/></linearGradient><linearGradient id="linearGradient-3" x1="50%" x2="53.512%" y1="0%" y2="182.137%"><stop offset="0%" stop-color="#F7EFE6"/><stop offset="100%" stop-color="#E4EBC8"/></linearGradient><linearGradient id="linearGradient-4" x1="50%" x2="53.512%" y1="0%" y2="182.137%"><stop offset="0%" stop-color="#E6F7E6"/><stop offset="100%" stop-color="#C8E6EB"/></linearGradient><linearGradient id="linearGradient-5" x1="50%" x2="53.512%" y1="0%" y2="182.137%"><stop offset="0%" stop-color="#E6F4F7"/><stop offset="100%" stop-color="#C8E6EB"/></linearGradient><linearGradient id="linearGradient-6" x1="50%" x2="50%" y1="0%" y2="134.291%"><stop offset="0%" stop-color="#FFD588"/><stop offset="100%" stop-color="#FFAA50"/></linearGradient><linearGradient id="linearGradient-7" x1="50%" x2="50%" y1="0%" y2="100%"><stop offset="0%" stop-color="#C1E3FF"/><stop offset="100%" stop-color="#6F88FC"/></linearGradient><linearGradient id="linearGradient-8" x1="50%" x2="50%" y1="0%" y2="274.14%"><stop offset="0%" stop-color="#FFB8C4"/><stop offset="100%" stop-color="#FF8291"/></linearGradient><linearGradient id="linearGradient-9" x1="50%" x2="56.152%" y1="0%" y2="182.137%"><stop offset="0%" stop-color="#E6F7E6"/><stop offset="100%" stop-color="#C8E6EB"/></linearGradient><rect id="path-10" width="15.825" height="11.697" x="0" y="0" rx="1.032"/><filter id="filter-11" width="384.4%" height="484.7%" x="-142.2%" y="-115.4%" filterUnits="objectBoundingBox"><feOffset dx="0" dy="9" in="SourceAlpha" result="shadowOffsetOuter1"/><feGaussianBlur in="shadowOffsetOuter1" result="shadowBlurOuter1" stdDeviation="6"/><feColorMatrix in="shadowBlurOuter1" type="matrix" values="0 0 0 0 0 0 0 0 0 0 0 0 0 0 0 0 0 0 0.101398601 0"/></filter><rect id="path-12" width="17.545" height="13.073" x="0" y="0" rx="1.032"/><filter id="filter-13" width="356.5%" height="444.2%" x="-128.2%" y="-103.3%" filterUnits="objectBoundingBox"><feOffset dx="0" dy="9" in="SourceAlpha" result="shadowOffsetOuter1"/><feGaussianBlur in="shadowOffsetOuter1" result="shadowBlurOuter1" stdDeviation="6"/><feColorMatrix in="shadowBlurOuter1" type="matrix" values="0 0 0 0 0 0 0 0 0 0 0 0 0 0 0 0 0 0 0.101398601 0"/></filter><linearGradient id="linearGradient-14" x1="50%" x2="50%" y1="0%" y2="100%"><stop offset="0%" stop-color="#72242F"/><stop offset="100%" stop-color="#3E1015"/></linearGradient><linearGradient id="linearGradient-15" x1="50%" x2="50%" y1="0%" y2="100%"><stop offset="0%" stop-color="#72242F"/><stop offset="100%" stop-color="#3E1015"/></linearGradient><linearGradient id="linearGradient-16" x1="50%" x2="50%" y1="0%" y2="100%"><stop offset="0%" stop-color="#2D3133"/><stop offset="100%" stop-color="#595F62"/></linearGradient><linearGradient id="linearGradient-17" x1="50%" x2="50%" y1="0%" y2="100%"><stop offset="0%" stop-color="#FFAF92"/><stop offset="100%" stop-color="#FF7759"/></linearGradient><linearGradient id="linearGradient-18" x1="50%" x2="50%" y1="0%" y2="100%"><stop offset="0%" stop-color="#88F3E2"/><stop offset="100%" stop-color="#1DDCB1"/></linearGradient><linearGradient id="linearGradient-19" x1="50%" x2="50%" y1="0%" y2="100%"><stop offset="0%" stop-color="#FFAF92"/><stop offset="100%" stop-color="#FF7759"/></linearGradient><linearGradient id="linearGradient-20" x1="50%" x2="50%" y1="-46.682%" y2="100%"><stop offset="0%" stop-color="#51585B"/><stop offset="100%" stop-color="#251A60"/></linearGradient><linearGradient id="linearGradient-21" x1="50%" x2="50%" y1="0%" y2="100%"><stop offset="0%" stop-color="#FFAF92"/><stop offset="100%" stop-color="#FF7759"/></linearGradient><linearGradient id="linearGradient-22" x1="50%" x2="50%" y1="-46.682%" y2="100%"><stop offset="0%" stop-color="#51585B"/><stop offset="100%" stop-color="#251A60"/></linearGradient><linearGradient id="linearGradient-23" x1="50%" x2="50%" y1="0%" y2="100%"><stop offset="0%" stop-color="#A7CAFF"/><stop offset="100%" stop-color="#6E9AFF"/></linearGradient><linearGradient id="linearGradient-24" x1="50%" x2="50%" y1="-46.682%" y2="100%"><stop offset="0%" stop-color="#51585B"/><stop offset="100%" stop-color="#251A60"/></linearGradient><polygon id="path-25" points=".072 .099 7.972 .099 7.972 15.607 .072 15.607"/><linearGradient id="linearGradient-27" x1="47.534%" x2="50%" y1="-46.191%" y2="100%"><stop offset="0%" stop-color="#A7CAFF"/><stop offset="100%" stop-color="#6E9AFF"/></linearGradient><linearGradient id="linearGradient-28" x1="50%" x2="50%" y1="-46.682%" y2="100%"><stop offset="0%" stop-color="#51585B"/><stop offset="100%" stop-color="#251A60"/></linearGradient></defs><g id="Page-1" fill="none" fill-rule="evenodd" stroke="none" stroke-width="1"><g id="WP-ERP-PRO-Page-Design" transform="translate(-732.000000, -2532.000000)"><g id="Group-12" transform="translate(744.000000, 2535.000000)"><g id="Group-9"><g id="Group-2" transform="translate(9.632479, 4.222519)"><polygon id="Fill-6" fill="url(#linearGradient-1)" points="13.107 67.048 26.049 22.851 38.991 67.048 40.468 67.048 26.049 17.807 11.63 67.048"/><path id="Fill-8" fill="url(#linearGradient-2)" d="M52.3827346,39.3542859 L1.2556378,39.3542859 C0.562009791,39.3542859 3.11734562e-15,38.7922761 3.11734562e-15,38.0986481 L3.11734562e-15,1.25607653 C3.11734562e-15,0.562448519 0.562009791,-9.66377144e-14 1.2556378,-9.66377144e-14 L52.3827346,-9.66377144e-14 C53.0759239,-9.66377144e-14 53.6383724,0.562448519 53.6383724,1.25607653 L53.6383724,38.0986481 C53.6383724,38.7922761 53.0759239,39.3542859 52.3827346,39.3542859"/><path id="Fill-10" fill="#FFF" d="M51.6805075,37.1624039 L1.95777712,37.1624039 C1.30100221,37.1624039 0.768387157,36.6297888 0.768387157,35.9730139 L0.768387157,2.00937146 C0.768387157,1.35215783 1.30100221,0.819981499 1.95777712,0.819981499 L51.6805075,0.819981499 C52.3372824,0.819981499 52.8694588,1.35215783 52.8694588,2.00937146 L52.8694588,35.9730139 C52.8694588,36.6297888 52.3372824,37.1624039 51.6805075,37.1624039"/><polygon id="Fill-12" fill="url(#linearGradient-3)" points="7.395 18.211 16.856 18.211 16.856 5.691 7.395 5.691"/><polygon id="Fill-14" fill="url(#linearGradient-4)" points="22.089 18.211 31.55 18.211 31.55 5.691 22.089 5.691"/><polygon id="Fill-15" fill="url(#linearGradient-5)" points="36.782 18.211 46.243 18.211 46.243 5.691 36.782 5.691"/><line id="Stroke-16" x1="9.082" x2="15.17" y1="15.856" y2="15.856" stroke="#E1DAC6" stroke-width=".567"/><line id="Stroke-17" x1="9.082" x2="15.17" y1="14.438" y2="14.438" stroke="#E1DAC6" stroke-width=".567"/><line id="Stroke-18" x1="9.082" x2="15.17" y1="13.021" y2="13.021" stroke="#E1DAC6" stroke-width=".567"/><line id="Stroke-19" x1="9.082" x2="15.17" y1="11.603" y2="11.603" stroke="#E1DAC6" stroke-width=".567"/><line id="Stroke-20" x1="9.082" x2="12.902" y1="9.618" y2="9.618" stroke="#E1DAC6" stroke-width=".567"/><line id="Stroke-21" x1="23.775" x2="29.863" y1="11.44" y2="11.44" stroke="#BAE7D6" stroke-width=".567"/><line id="Stroke-22" x1="23.775" x2="29.863" y1="10.022" y2="10.022" stroke="#BAE7D6" stroke-width=".567"/><line id="Stroke-23" x1="23.775" x2="27.595" y1="8.037" y2="8.037" stroke="#BAE7D6" stroke-width=".567"/><line id="Stroke-24" x1="38.651" x2="44.739" y1="11.723" y2="11.723" stroke="#B9E0E7" stroke-width=".567"/><line id="Stroke-25" x1="38.651" x2="44.739" y1="10.306" y2="10.306" stroke="#B9E0E7" stroke-width=".567"/><line id="Stroke-26" x1="38.651" x2="42.471" y1="8.321" y2="8.321" stroke="#B9E0E7" stroke-width=".567"/><polygon id="Fill-27" fill="url(#linearGradient-6)" points="20.261 19.819 25.251 19.819 25.251 14.829 20.261 14.829"/><polygon id="Fill-28" fill="url(#linearGradient-7)" points="27.368 20.706 32.359 20.706 32.359 15.716 27.368 15.716"/><polygon id="Fill-29" fill="url(#linearGradient-8)" points="10.992 26.586 13.949 26.586 13.949 23.629 10.992 23.629"/><polygon id="Fill-30" fill="url(#linearGradient-9)" points="10.992 31.788 13.949 31.788 13.949 28.831 10.992 28.831"/><polygon id="Fill-31" fill="#E7E5FF" points="17.796 26.586 41.695 26.586 41.695 23.629 17.796 23.629"/><polygon id="Fill-32" fill="#E7E5FF" points="17.796 31.788 41.695 31.788 41.695 28.831 17.796 28.831"/><polyline id="Stroke-33" stroke="#FFF" stroke-linecap="round" stroke-linejoin="round" stroke-width=".5" points="13.463 24.486 12.22 25.729 11.477 24.987"/><polyline id="Stroke-34" stroke="#FFF" stroke-linecap="round" stroke-linejoin="round" stroke-width=".5" points="13.5 29.688 12.257 30.931 11.514 30.189"/></g><g id="Group-6" transform="translate(0.000000, 9.976496)"><g id="Rectangle"><use fill="#000" fill-opacity="1" filter="url(#filter-11)" xlink:href="#path-10"/><use fill="#FFF" fill-rule="evenodd" xlink:href="#path-10"/></g><line id="Stroke-19" x1="3.096" x2="12.625" y1="4.692" y2="4.692" stroke="#E1DAC6" stroke-width=".567"/><line id="Stroke-20" x1="4.128" x2="11.388" y1="2.972" y2="2.972" stroke="#E1DAC6" stroke-width=".567"/><line id="Stroke-19-Copy" x1="3.096" x2="12.625" y1="9.164" y2="9.164" stroke="#E1DAC6" stroke-width=".567"/><line id="Stroke-20-Copy" x1="4.128" x2="11.388" y1="7.1" y2="7.1" stroke="#E1DAC6" stroke-width=".567"/></g><g id="Group-6-Copy" transform="translate(49.538465, 0.000000)"><g id="Rectangle"><use fill="#000" fill-opacity="1" filter="url(#filter-13)" xlink:href="#path-12"/><use fill="#FFF" fill-rule="evenodd" xlink:href="#path-12"/></g><line id="Stroke-19" x1="3.44" x2="14.105" y1="5.332" y2="5.332" stroke="#C6E1D5" stroke-width=".567"/><line id="Stroke-20" x1="4.816" x2="12.729" y1="3.268" y2="3.268" stroke="#C6E1D5" stroke-width=".567"/><line id="Stroke-19-Copy" x1="3.44" x2="14.105" y1="10.149" y2="10.149" stroke="#C6E1D5" stroke-width=".567"/><line id="Stroke-20-Copy" x1="4.816" x2="12.729" y1="8.084" y2="8.084" stroke="#C6E1D5" stroke-width=".567"/></g></g><g id="Group-48" transform="translate(47.629170, 3.354167)"><path id="Fill-1" fill="url(#linearGradient-14)" d="M23.3067642,68.8798776 C23.3067642,68.8798776 24.0770057,70.0323442 25.1575804,70.2813696 C26.2379554,70.5303951 27.3023545,70.9261998 27.3103585,71.6079743 C27.3185301,72.2899485 24.1864411,72.696537 22.9501007,72.0091709 C21.1048761,70.9833138 20.9169588,71.2924489 20.712666,70.7798199 C20.5077742,70.2669913 20.9582966,68.8956539 20.9451164,68.7324993 C20.9285413,68.5310024 23.3067642,68.8798776 23.3067642,68.8798776"/><path id="Fill-3" fill="#81807E" d="M23.1870243,68.3113927 C23.1870243,68.3113927 23.3276129,68.8679556 23.3068441,68.8799375 C23.2858757,68.8917198 20.8719065,69.1792873 20.9449966,68.7323595 C21.0041077,68.3703041 21.0885806,67.9764964 21.0885806,67.9764964 L23.1870243,68.3113927 Z"/><path id="Fill-5" fill="url(#linearGradient-15)" d="M15.1830432,68.8034326 C15.1830432,68.8034326 15.7324168,69.9059743 16.6712048,70.2812099 C17.6746955,70.6826061 18.4792853,71.1439123 18.4611126,71.808313 C18.4427402,72.4727136 16.0080023,73.1459011 14.2368663,71.8708189 C13.1175499,71.0652306 12.7628833,71.0614363 12.5833534,70.5541993 C12.4038234,70.0467625 12.8950845,68.7285452 12.8884944,68.5691849 C12.8803067,68.3722811 15.1830432,68.8034326 15.1830432,68.8034326"/><path id="Fill-7" fill="#81807E" d="M15.2103421,68.2310535 C15.2103421,68.2310535 15.203752,68.7928086 15.1829832,68.8033927 C15.1622145,68.8141764 12.8291237,69.0064872 12.8884345,68.569145 C12.9355636,68.2218673 13.1148939,67.8024981 13.1148939,67.8024981 L15.2103421,68.2310535 Z"/><path id="Fill-9" fill="url(#linearGradient-16)" d="M23.7646555,34.5563038 C23.7646555,34.5563038 25.9321953,44.1171233 26.4272507,47.0293431 C26.8484172,49.5080149 27.1845117,52.0889329 26.9826154,53.8784413 C26.7325915,56.093909 23.5965084,67.5750402 23.7275114,68.2246631 C23.8589138,68.8740863 20.4460471,68.3285069 20.4460471,68.3285069 C20.4460471,68.3285069 22.8310598,55.5215699 22.3545764,53.1379551 C22.0019069,51.3726103 18.9099575,39.6450498 18.43627,40.2465451 C17.9623827,40.8480404 17.3748664,51.3144978 17.0239942,53.0520842 C16.6731219,54.7892713 15.5959421,68.5176225 15.5959421,68.5176225 C15.5959421,68.5176225 13.1871652,68.8730878 12.5439326,68.3285069 C12.5439326,68.3285069 12.251173,56.6063383 12.4746369,53.3490376 C12.5599086,52.1077047 11.0202245,38.4646253 12.994455,32.9720866 C14.0378856,30.0694525 23.7646555,34.5563038 23.7646555,34.5563038"/><path id="Fill-11" fill="#495055" d="M23.4592549,33.0727951 C23.4592549,33.0727951 23.6960986,33.3563686 23.7645956,34.5563637 C23.7645956,34.5563637 14.0240464,33.4198731 12.9945948,32.9721465 C12.9945948,32.9721465 12.9542555,31.6497356 13.1725272,31.6267701 C13.4123664,31.601608 23.4592549,33.0727951 23.4592549,33.0727951"/><path id="Fill-13" fill="#353A3D" d="M15.3981396,31.8611376 C15.3981396,31.8611376 15.1856592,33.2017212 15.1672869,33.5513953 L14.7165648,33.4615304 C14.7165648,33.4615304 14.840778,32.0428643 14.9136683,31.8052217 L15.3981396,31.8611376 Z"/><path id="Fill-15" fill="#353A3D" d="M22.6466172,32.9163904 C22.6466172,32.9163904 22.8171607,34.1351572 22.8213544,34.5952652 L22.3446713,34.533558 C22.3446713,34.533558 22.2470182,33.0116471 22.1925002,32.8526862 L22.6466172,32.9163904 Z"/><path id="Fill-17" fill="#69737A" d="M18.5365791,32.2798478 C18.5365791,32.2798478 19.9698233,32.450591 20.4439103,32.5690129 L20.381604,34.1755964 L18.5050265,33.975098 L18.5365791,32.2798478 Z"/><path id="Fill-19" fill="url(#linearGradient-17)" d="M0.500826705,3.86398817 C1.05399468,3.58920147 1.84220913,4.14516525 2.27056484,5.10791717 C2.58549116,5.17621444 2.80096706,5.64470978 2.76062773,6.20726364 C2.7272779,6.67336258 2.52837706,7.06796905 2.27675553,7.22133837 C2.21065495,7.30121822 2.13217299,7.3655215 2.04210846,7.41045392 C1.48354859,7.68783671 0.686147963,7.11889246 0.260388349,6.13976517 C-0.165371265,5.16043817 -0.0577331634,4.14157065 0.500826705,3.86398817"/><path id="Fill-21" fill="#FDCEAE" d="M34.3118714,10.9015629 C33.7587035,10.6265765 32.970489,11.18274 32.5421333,12.1454919 C32.2270073,12.2137892 32.0117311,12.6822845 32.0520704,13.2450381 C32.0854203,13.711137 32.2843211,14.1055438 32.5357429,14.2587134 C32.6020432,14.338793 32.6805252,14.4030963 32.7705897,14.447829 C33.3289499,14.7254115 34.1265502,14.1564672 34.5523098,13.1771402 C34.9780694,12.1980129 34.8704313,11.1791454 34.3118714,10.9015629"/><path id="Fill-23" fill="url(#linearGradient-18)" d="M17.0741388,13.8189349 L13.0701611,14.3874798 C7.98700673,15.1089945 4.40399594,11.9167959 2.72332384,6.71302293 C2.24843812,7.15475851 1.68568456,7.34247617 1.03007067,7.26079902 C1.83765598,13.8612712 5.63414567,17.6573615 12.2847425,19.0786238 C12.4504932,24.249047 12.1106044,32.1036329 11.985193,37.1845906 C15.6782383,37.9997645 23.6967776,38.7065015 24.3000702,35.7866932 C23.8689187,30.6246574 23.5104579,25.5139444 23.9875403,20.5122675 C25.7017619,22.2322804 28.8534215,24.2963758 29.9633521,24.0928818 C31.9246021,23.7332228 32.9750222,18.8074317 33.5924935,14.3611194 C32.8623916,14.2960173 32.3567521,13.912594 32.0520105,13.2449982 C31.2895573,15.7284628 30.4028909,17.7971513 29.4351465,20.1266475 C25.8840877,17.799348 24.5580821,15.6901205 20.5217532,13.6276227 L17.0741388,13.8189349 Z"/><path id="Fill-25" fill="url(#linearGradient-19)" d="M17.018762,11.8412496 L20.5216933,11.8412496 L20.5216933,13.6275628 C21.495229,14.58013 20.9849964,15.3118294 19.595087,15.2391388 C18.411667,15.1774316 17.018762,14.7660504 17.018762,13.3635598 L17.018762,11.8412496 Z"/><path id="Fill-27" fill="url(#linearGradient-20)" d="M21.8117329,4.95766317 C21.3933622,6.19620028 20.1150849,7.51182145 19.5657112,8.28006594 C19.1181843,8.90592458 16.9732106,11.0628803 17.0187421,11.8413095 C17.0187421,11.8415092 17.0630754,12.5969729 17.0630754,12.5969729 C15.7065158,10.7032213 14.2996319,10.3211959 13.688551,8.2974398 C13.237829,6.80488476 13.1505602,5.02096795 14.1602416,3.72651494 C15.3877952,2.15308155 17.6104521,2.26890733 19.4183328,2.39791329 C20.1266674,2.4484373 20.8777377,2.56865648 21.4073412,3.0419446 C22.0096353,3.58053451 22.0485767,4.25671746 21.8117329,4.95766317"/><path id="Fill-29" fill="url(#linearGradient-21)" d="M18.5853457,5.43818042 C19.7513919,5.59754073 20.8623209,5.45475549 21.9155368,4.99404844 C23.6377464,7.889094 23.6992539,11.9575746 20.6416528,12.7380007 C18.9499973,13.169951 16.6750191,12.5219257 16.4022294,10.4702117 C15.1982403,10.3491938 14.6670393,8.39573196 15.3112703,7.8880955 C15.988252,7.35449808 16.4533525,8.35379504 16.5607909,8.93112667 L16.8563463,8.84405763 L16.6981842,7.28819781 C17.5562935,6.90038112 18.1783579,6.27671917 18.5853457,5.43818042"/><path id="Fill-31" fill="url(#linearGradient-22)" d="M32.5292127,11.2912967 L33.8324525,10.9929455 L34.3191205,13.118149 C34.3574629,13.2860964 34.2516221,13.4548425 34.0836747,13.4933846 L33.390717,13.6519461 C33.2229693,13.6904881 33.0542231,13.5844476 33.0158807,13.4166999 L32.5292127,11.2912967 Z"/><path id="Fill-33" fill="url(#linearGradient-23)" d="M31.2383743,6.88240816 C34.2115024,6.41730771 36.7219265,5.6137164 38.1397939,3.75571103 L41.0608004,10.3697628 L39.1011479,12.7473866 C36.3187329,11.0080028 34.2975729,11.1180373 31.7354267,11.3620703 C30.5132649,11.4782955 29.4107233,10.6521381 29.2753269,9.43197335 C29.2277984,9.00301854 29.3062804,8.58424841 29.4808178,8.2132065 L29.4812172,8.212208 C29.4878073,8.19822903 29.4945971,8.18464945 29.5011872,8.17106988 L29.5035836,8.16587769 C29.5459199,8.08060594 29.5936481,7.99813 29.6457697,7.91884924 L29.6461691,7.91805044 C29.6541571,7.90586877 29.6621451,7.89388679 29.6703328,7.88190481 L29.6751256,7.87531472 C29.6827142,7.86413154 29.6907022,7.85294836 29.6984904,7.84176518 L29.7032832,7.8351751 C29.7116706,7.82359252 29.720058,7.81200994 29.7288448,7.80042736 L29.7302427,7.79843036 C29.7392292,7.78644839 29.7484153,7.77446641 29.7576015,7.76268413 L29.7621946,7.75669314 C29.7997382,7.70896493 29.8388793,7.66283431 29.8798177,7.6179019 L29.8842111,7.61330881 L29.9087741,7.58674875 L29.9205564,7.57436738 L29.9425234,7.55200102 L29.9573012,7.53702355 L29.978669,7.51605509 L29.9930474,7.50227581 L30.0156135,7.48070825 L30.0301915,7.46732838 C30.0381795,7.46013919 30.0459678,7.45295 30.0537561,7.44596051 L30.0649393,7.43617523 C30.073726,7.42858665 30.0827125,7.42079836 30.0914993,7.41320978 C30.103681,7.40262569 30.1162621,7.39224131 30.1286434,7.38205663 L30.1524077,7.36288547 L30.1689828,7.34970529 L30.1917485,7.33213172 L30.2101209,7.31835245 L30.2336854,7.30097858 L30.2510593,7.28839751 L30.2754227,7.27102364 L30.2947935,7.25764376 L30.315762,7.24346509 L30.3419226,7.22649062 L30.3588971,7.21530744 C30.3680833,7.20951615 30.3772695,7.20372486 30.3866554,7.19813327 L30.4040292,7.18714979 C30.4138145,7.1813585 30.4235998,7.17556721 30.4333851,7.16997562 L30.4479632,7.16138854 L30.4483626,7.16118884 L30.4605442,7.15419935 C30.4717274,7.14800866 30.4829106,7.14161828 30.4940938,7.13562729 L30.5090712,7.1276393 L30.5396253,7.11146363 L30.5589961,7.10167835 L30.5871538,7.08749968 L30.6065247,7.07811379 L30.6340832,7.06533302 L30.6550517,7.05574744 C30.6646373,7.05155374 30.6742228,7.04736005 30.6836087,7.04336606 L30.7031793,7.03477897 C30.7141628,7.03018588 30.7249465,7.02579249 30.7355306,7.0213991 L30.7515066,7.01500871 C30.7632889,7.01041562 30.7754705,7.00582253 30.7872528,7.00122944 L30.8022303,6.99563785 L30.8028294,6.99523845 C30.818406,6.98964686 30.8339825,6.98405527 30.8497588,6.97866338 L30.8505576,6.97846368 L30.8701282,6.97187359 C30.8805126,6.9684787 30.8908969,6.9650838 30.901481,6.96168891 L30.9218504,6.95549822 C30.9322348,6.95230303 30.9426191,6.94910783 30.9528038,6.94611234 L30.9747708,6.93992165 L31.0039269,6.93193366 L31.0260936,6.92614237 L31.0594434,6.91795469 L31.077017,6.913761 C31.0893984,6.9109652 31.10158,6.90816941 31.1139614,6.90557331 L31.1307362,6.90197872 C31.1427182,6.89938262 31.1547001,6.89718593 31.1668818,6.89478953 L31.1850545,6.89139464 C31.2028278,6.88819944 31.2204013,6.88520395 31.2383743,6.88240816"/><path id="Fill-35" fill="url(#linearGradient-24)" d="M31.2383743,6.88240816 C31.400131,6.857246 31.5602901,6.83088565 31.7190513,6.8033271 C31.5946384,7.59473674 31.5748682,8.53352471 31.6853021,9.52942677 C31.7569942,10.1736578 31.8764146,10.7829414 32.0317809,11.3341123 C31.9335287,11.3430988 31.8346774,11.3520853 31.7354267,11.3620703 C30.5132649,11.4782955 29.4107233,10.6521381 29.2753269,9.43197335 C29.1397309,8.2116089 30.0253987,7.0721228 31.2383743,6.88240816"/><g id="Group-39" transform="translate(37.743230, 0.100649)"><mask id="mask-26" fill="#fff"><use xlink:href="#path-25"/></mask><path id="Fill-37" fill="#B7CDFE" d="M3.16264306,0.111032995 C5.29164083,-0.125411368 7.40206654,3.14946289 7.87655286,7.42523169 C8.35123888,11.7010005 7.01025586,15.3588986 4.88105839,15.5951433 C2.75226032,15.831388 0.641834615,12.5567134 0.167148591,8.28094461 C-0.307337733,4.00517581 1.03364529,0.347277659 3.16264306,0.111032995" mask="url(#mask-26)"/></g><path id="Fill-40" fill="url(#linearGradient-27)" d="M41.0164471,1.20842241 C42.7073039,1.02070476 44.4131381,3.88859116 44.8265163,7.61398778 C45.2398946,11.3391847 44.2046517,14.5112137 42.5137949,14.699131 C40.8229381,14.886649 39.1171039,12.0187626 38.7037256,8.29356563 C38.2903474,4.56816901 39.32579,1.39594036 41.0164471,1.20842241"/><path id="Fill-42" fill="#5E94EA" d="M40.4464045,13.4454766 C39.6044708,12.2878179 38.9410687,10.4322089 38.7036258,8.29342584 C38.5624382,7.02213799 38.5903961,5.81535311 38.7551483,4.76952615 C39.7208957,4.74636099 40.7118053,6.6928333 40.988589,9.18688199 C41.1910844,11.0099399 40.9568367,12.6311015 40.4464045,13.4454766"/><path id="Fill-44" fill="url(#linearGradient-28)" d="M40.7954794,7.52899562 L38.6165568,6.98621202 C38.6259426,7.41137254 38.6543,7.84831533 38.7036258,8.29344581 C38.7703255,8.8941423 38.8707744,9.47247243 38.9991812,10.01925 L40.9993728,9.28615268 L40.7954794,7.52899562 Z"/><path id="Fill-46" fill="#D8E4FF" d="M40.7954794,7.52899562 C41.0421085,7.50163677 41.2859417,7.87307809 41.3398606,8.35854789 C41.3935798,8.84401769 41.2374147,9.25979233 40.9907857,9.28735088 C40.7437572,9.31470973 40.5001237,8.94326841 40.4462048,8.45779861 C40.3922859,7.9721291 40.5488504,7.55635447 40.7954794,7.52899562"/></g></g></g></g></svg>