<svg xmlns="http://www.w3.org/2000/svg" xmlns:xlink="http://www.w3.org/1999/xlink" width="743" height="183" version="1.1" viewBox="0 0 743 183"><title>Group 22</title><desc>Created with Sketch.</desc><g id="Page-1" fill="none" fill-rule="evenodd" stroke="none" stroke-width="1"><g id="WP-ERP-PRO-Page-Design" transform="translate(-356.000000, -4000.000000)"><g id="Group-6" transform="translate(278.000000, 3913.000000)"><g id="Group-22" transform="translate(78.000000, 87.000000)"><g id="Group-5-Copy-6" fill="#30CFEC" transform="translate(586.000000, 148.000000)"><polygon id="Fill-1" points="19.049 0 13.093 4.551 6.225 0 0 4.867 .887 6.002 6.295 1.773 13.152 6.317 19.1 1.773 25.823 6.317 31.906 1.773 38.492 6.317 44.712 1.773 51.162 6.317 57.517 1.773 63.833 6.317 70.745 1.476 69.919 .297 63.843 4.551 57.52 .001 51.156 4.551 44.696 .001 38.468 4.551 31.872 .001 25.781 4.551"/><polygon id="Fill-2" points="13.093 13.927 6.225 9.375 0 14.242 .887 15.377 6.295 11.149 13.152 15.692 19.101 11.149 25.823 15.692 31.906 11.148 38.492 15.692 44.712 11.148 51.162 15.692 57.517 11.148 63.833 15.692 70.745 10.853 69.92 9.672 63.843 13.927 57.52 9.376 51.156 13.927 44.697 9.376 38.469 13.927 31.872 9.376 25.781 13.927 19.049 9.375"/><polygon id="Fill-3" points="13.093 23.302 6.225 18.75 0 23.617 .887 24.752 6.295 20.524 13.152 25.068 19.101 20.524 25.823 25.068 31.906 20.523 38.492 25.068 44.712 20.523 51.162 25.068 57.517 20.523 63.833 25.068 70.745 20.226 69.92 19.047 63.843 23.302 57.52 18.75 51.156 23.302 44.697 18.75 38.469 23.302 31.872 18.75 25.781 23.302 19.049 18.75"/><polygon id="Fill-4" points="13.093 32.677 6.225 28.126 0 32.992 .887 34.128 6.295 29.899 13.152 34.443 19.101 29.899 25.823 34.443 31.906 29.898 38.492 34.443 44.712 29.898 51.162 34.443 57.517 29.898 63.833 34.443 70.745 29.602 69.92 28.423 63.843 32.677 57.52 28.126 51.156 32.677 44.697 28.126 38.469 32.677 31.872 28.126 25.781 32.677 19.049 28.126"/></g><g id="Group-5-Copy-8" fill="#02AEFF" transform="translate(0.000000, 17.000000)"><polygon id="Fill-1" points="19.049 0 13.093 4.551 6.225 0 0 4.867 .887 6.002 6.295 1.773 13.152 6.317 19.1 1.773 25.823 6.317 31.906 1.773 38.492 6.317 44.712 1.773 51.162 6.317 57.517 1.773 63.833 6.317 70.745 1.476 69.919 .297 63.843 4.551 57.52 .001 51.156 4.551 44.696 .001 38.468 4.551 31.872 .001 25.781 4.551"/><polygon id="Fill-2" points="13.093 13.927 6.225 9.375 0 14.242 .887 15.377 6.295 11.149 13.152 15.692 19.101 11.149 25.823 15.692 31.906 11.148 38.492 15.692 44.712 11.148 51.162 15.692 57.517 11.148 63.833 15.692 70.745 10.853 69.92 9.672 63.843 13.927 57.52 9.376 51.156 13.927 44.697 9.376 38.469 13.927 31.872 9.376 25.781 13.927 19.049 9.375"/><polygon id="Fill-3" points="13.093 23.302 6.225 18.75 0 23.617 .887 24.752 6.295 20.524 13.152 25.068 19.101 20.524 25.823 25.068 31.906 20.523 38.492 25.068 44.712 20.523 51.162 25.068 57.517 20.523 63.833 25.068 70.745 20.226 69.92 19.047 63.843 23.302 57.52 18.75 51.156 23.302 44.697 18.75 38.469 23.302 31.872 18.75 25.781 23.302 19.049 18.75"/><polygon id="Fill-4" points="13.093 32.677 6.225 28.126 0 32.992 .887 34.128 6.295 29.899 13.152 34.443 19.101 29.899 25.823 34.443 31.906 29.898 38.492 34.443 44.712 29.898 51.162 34.443 57.517 29.898 63.833 34.443 70.745 29.602 69.92 28.423 63.843 32.677 57.52 28.126 51.156 32.677 44.697 28.126 38.469 32.677 31.872 28.126 25.781 32.677 19.049 28.126"/></g><g id="Group-5-Copy-9" fill="#02AEFF" opacity=".559" transform="translate(224.000000, 134.500000) rotate(-90.000000) translate(-224.000000, -134.500000) translate(209.000000, 127.000000)"><polygon id="Fill-1" points="8.043 0 5.528 1.922 2.629 0 0 2.055 .375 2.534 2.658 .749 5.553 2.667 8.065 .749 10.903 2.667 13.471 .749 16.252 2.667 18.879 .749 21.602 2.667 24.285 .749 26.952 2.667 29.87 .623 29.522 .125 26.956 1.922 24.286 0 21.599 1.922 18.872 0 16.242 1.922 13.457 0 10.885 1.922"/><polygon id="Fill-2" points="5.528 5.88 2.629 3.958 0 6.013 .375 6.493 2.658 4.707 5.553 6.626 8.065 4.707 10.903 6.626 13.471 4.707 16.252 6.626 18.879 4.707 21.602 6.626 24.285 4.707 26.952 6.626 29.87 4.582 29.522 4.084 26.956 5.88 24.286 3.959 21.599 5.88 18.872 3.959 16.242 5.88 13.457 3.959 10.885 5.88 8.043 3.958"/><polygon id="Fill-3" points="5.528 9.838 2.629 7.917 0 9.972 .375 10.451 2.658 8.666 5.553 10.584 8.065 8.666 10.903 10.584 13.471 8.665 16.252 10.584 18.879 8.665 21.602 10.584 24.285 8.665 26.952 10.584 29.87 8.54 29.522 8.042 26.956 9.838 24.286 7.917 21.599 9.838 18.872 7.917 16.242 9.838 13.457 7.917 10.885 9.838 8.043 7.917"/><polygon id="Fill-4" points="5.528 13.797 2.629 11.875 0 13.93 .375 14.409 2.658 12.624 5.553 14.543 8.065 12.624 10.903 14.543 13.471 12.624 16.252 14.543 18.879 12.624 21.602 14.543 24.285 12.624 26.952 14.543 29.87 12.499 29.522 12.001 26.956 13.797 24.286 11.876 21.599 13.797 18.872 11.876 16.242 13.797 13.457 11.876 10.885 13.797 8.043 11.875"/></g><g id="Group-21-Copy-6" fill="#6DE4AB" transform="translate(692.000000, 0.000000)"><polygon id="Fill-1" points="4.538 0 2.88 1.658 1.222 0 0 1.221 1.658 2.88 0 4.538 1.222 5.76 2.88 4.102 4.538 5.76 5.76 4.538 4.102 2.88 5.76 1.221"/><polygon id="Fill-2" points="19.658 0 18 1.658 16.342 0 15.12 1.221 16.778 2.88 15.12 4.538 16.342 5.76 18 4.102 19.658 5.76 20.88 4.538 19.222 2.88 20.88 1.221"/><polygon id="Fill-3" points="34.058 0 32.399 1.658 30.742 0 29.52 1.221 31.178 2.88 29.52 4.538 30.742 5.76 32.399 4.102 34.058 5.76 35.28 4.538 33.622 2.88 35.28 1.221"/><polygon id="Fill-4" points="49.178 0 47.52 1.658 45.862 0 44.64 1.221 46.298 2.88 44.64 4.538 45.862 5.76 47.52 4.102 49.178 5.76 50.4 4.538 48.742 2.88 50.4 1.221"/><polygon id="Fill-5" points="2.88 18.218 1.222 16.56 0 17.781 1.658 19.44 0 21.098 1.222 22.32 2.88 20.662 4.538 22.32 5.76 21.098 4.102 19.44 5.76 17.781 4.538 16.56"/><polygon id="Fill-6" points="20.88 21.098 19.222 19.44 20.88 17.781 19.658 16.56 18 18.218 16.342 16.56 15.12 17.781 16.778 19.44 15.12 21.098 16.342 22.32 18 20.662 19.658 22.32"/><polygon id="Fill-7" points="35.28 21.098 33.622 19.44 35.28 17.781 34.058 16.56 32.4 18.218 30.742 16.56 29.52 17.781 31.178 19.44 29.52 21.098 30.742 22.32 32.4 20.662 34.058 22.32"/><polygon id="Fill-8" points="47.52 18.218 45.862 16.56 44.64 17.781 46.298 19.44 44.64 21.098 45.862 22.32 47.52 20.662 49.178 22.32 50.4 21.098 48.742 19.44 50.4 17.781 49.178 16.56"/><polygon id="Fill-9" points="2.88 32.618 1.222 30.96 0 32.181 1.658 33.84 0 35.498 1.222 36.72 2.88 35.062 4.538 36.72 5.76 35.498 4.102 33.84 5.76 32.181 4.538 30.96"/><polygon id="Fill-10" points="20.88 35.498 19.222 33.84 20.88 32.182 19.658 30.96 18 32.618 16.342 30.96 15.12 32.182 16.778 33.84 15.12 35.498 16.342 36.72 18 35.062 19.658 36.72"/><polygon id="Fill-11" points="35.28 35.498 33.622 33.84 35.28 32.182 34.058 30.96 32.4 32.618 30.742 30.96 29.52 32.182 31.178 33.84 29.52 35.498 30.742 36.72 32.4 35.062 34.058 36.72"/><polygon id="Fill-12" points="47.52 32.618 45.862 30.96 44.64 32.181 46.298 33.84 44.64 35.498 45.862 36.72 47.52 35.062 49.178 36.72 50.4 35.498 48.742 33.84 50.4 32.181 49.178 30.96"/><polygon id="Fill-13" points="2.88 49.178 1.222 47.52 0 48.741 1.658 50.4 0 52.058 1.222 53.28 2.88 51.622 4.538 53.28 5.76 52.058 4.102 50.4 5.76 48.741 4.538 47.52"/><polygon id="Fill-14" points="20.88 52.058 19.222 50.4 20.88 48.741 19.658 47.52 18 49.178 16.342 47.52 15.12 48.741 16.778 50.4 15.12 52.058 16.342 53.28 18 51.621 19.658 53.28"/><polygon id="Fill-15" points="35.28 52.058 33.622 50.4 35.28 48.741 34.058 47.52 32.4 49.178 30.742 47.52 29.52 48.741 31.178 50.4 29.52 52.058 30.742 53.28 32.4 51.621 34.058 53.28"/><polygon id="Fill-16" points="47.52 49.178 45.862 47.52 44.64 48.741 46.298 50.4 44.64 52.058 45.862 53.28 47.52 51.622 49.178 53.28 50.4 52.058 48.742 50.4 50.4 48.741 49.178 47.52"/><polygon id="Fill-17" points="2.88 62.138 1.222 60.48 0 61.702 1.658 63.36 0 65.018 1.222 66.24 2.88 64.582 4.538 66.24 5.76 65.018 4.102 63.36 5.76 61.702 4.538 60.48"/><polygon id="Fill-18" points="18 62.138 16.342 60.48 15.12 61.702 16.778 63.36 15.12 65.018 16.342 66.24 18 64.582 19.658 66.24 20.88 65.018 19.222 63.36 20.88 61.702 19.658 60.48"/><polygon id="Fill-19" points="32.4 62.138 30.742 60.48 29.52 61.702 31.178 63.36 29.52 65.018 30.742 66.24 32.4 64.582 34.059 66.24 35.28 65.018 33.622 63.36 35.28 61.702 34.059 60.48"/><polygon id="Fill-20" points="47.52 62.138 45.862 60.48 44.64 61.702 46.298 63.36 44.64 65.018 45.862 66.24 47.52 64.582 49.178 66.24 50.4 65.018 48.742 63.36 50.4 61.702 49.178 60.48"/></g><g id="Group-21-Copy-7" fill="#6DE4AB" opacity=".343" transform="translate(573.000000, 71.000000)"><polygon id="Fill-1" points="1.815 0 1.152 .663 .489 0 0 .489 .663 1.152 0 1.815 .489 2.304 1.152 1.641 1.815 2.304 2.304 1.815 1.641 1.152 2.304 .489"/><polygon id="Fill-2" points="7.863 0 7.2 .663 6.537 0 6.048 .489 6.711 1.152 6.048 1.815 6.537 2.304 7.2 1.641 7.863 2.304 8.352 1.815 7.689 1.152 8.352 .489"/><polygon id="Fill-3" points="13.623 0 12.96 .663 12.297 0 11.808 .489 12.471 1.152 11.808 1.815 12.297 2.304 12.96 1.641 13.623 2.304 14.112 1.815 13.449 1.152 14.112 .489"/><polygon id="Fill-4" points="19.671 0 19.008 .663 18.345 0 17.856 .489 18.519 1.152 17.856 1.815 18.345 2.304 19.008 1.641 19.671 2.304 20.16 1.815 19.497 1.152 20.16 .489"/><polygon id="Fill-5" points="1.152 7.287 .489 6.624 0 7.113 .663 7.776 0 8.439 .489 8.928 1.152 8.265 1.815 8.928 2.304 8.439 1.641 7.776 2.304 7.113 1.815 6.624"/><polygon id="Fill-6" points="8.352 8.439 7.689 7.776 8.352 7.113 7.863 6.624 7.2 7.287 6.537 6.624 6.048 7.113 6.711 7.776 6.048 8.439 6.537 8.928 7.2 8.265 7.863 8.928"/><polygon id="Fill-7" points="14.112 8.439 13.449 7.776 14.112 7.113 13.623 6.624 12.96 7.287 12.297 6.624 11.808 7.113 12.471 7.776 11.808 8.439 12.297 8.928 12.96 8.265 13.623 8.928"/><polygon id="Fill-8" points="19.008 7.287 18.345 6.624 17.856 7.113 18.519 7.776 17.856 8.439 18.345 8.928 19.008 8.265 19.671 8.928 20.16 8.439 19.497 7.776 20.16 7.113 19.671 6.624"/><polygon id="Fill-9" points="1.152 13.047 .489 12.384 0 12.873 .663 13.536 0 14.199 .489 14.688 1.152 14.025 1.815 14.688 2.304 14.199 1.641 13.536 2.304 12.873 1.815 12.384"/><polygon id="Fill-10" points="8.352 14.199 7.689 13.536 8.352 12.873 7.863 12.384 7.2 13.047 6.537 12.384 6.048 12.873 6.711 13.536 6.048 14.199 6.537 14.688 7.2 14.025 7.863 14.688"/><polygon id="Fill-11" points="14.112 14.199 13.449 13.536 14.112 12.873 13.623 12.384 12.96 13.047 12.297 12.384 11.808 12.873 12.471 13.536 11.808 14.199 12.297 14.688 12.96 14.025 13.623 14.688"/><polygon id="Fill-12" points="19.008 13.047 18.345 12.384 17.856 12.873 18.519 13.536 17.856 14.199 18.345 14.688 19.008 14.025 19.671 14.688 20.16 14.199 19.497 13.536 20.16 12.873 19.671 12.384"/><polygon id="Fill-13" points="1.152 19.671 .489 19.008 0 19.497 .663 20.16 0 20.823 .489 21.312 1.152 20.649 1.815 21.312 2.304 20.823 1.641 20.16 2.304 19.497 1.815 19.008"/><polygon id="Fill-14" points="8.352 20.823 7.689 20.16 8.352 19.497 7.863 19.008 7.2 19.671 6.537 19.008 6.048 19.497 6.711 20.16 6.048 20.823 6.537 21.312 7.2 20.648 7.863 21.312"/><polygon id="Fill-15" points="14.112 20.823 13.449 20.16 14.112 19.497 13.623 19.008 12.96 19.671 12.297 19.008 11.808 19.497 12.471 20.16 11.808 20.823 12.297 21.312 12.96 20.648 13.623 21.312"/><polygon id="Fill-16" points="19.008 19.671 18.345 19.008 17.856 19.497 18.519 20.16 17.856 20.823 18.345 21.312 19.008 20.649 19.671 21.312 20.16 20.823 19.497 20.16 20.16 19.497 19.671 19.008"/><polygon id="Fill-17" points="1.152 24.855 .489 24.192 0 24.681 .663 25.344 0 26.007 .489 26.496 1.152 25.833 1.815 26.496 2.304 26.007 1.641 25.344 2.304 24.681 1.815 24.192"/><polygon id="Fill-18" points="7.2 24.855 6.537 24.192 6.048 24.681 6.711 25.344 6.048 26.007 6.537 26.496 7.2 25.833 7.863 26.496 8.352 26.007 7.689 25.344 8.352 24.681 7.863 24.192"/><polygon id="Fill-19" points="12.96 24.855 12.297 24.192 11.808 24.681 12.471 25.344 11.808 26.007 12.297 26.496 12.96 25.833 13.624 26.496 14.112 26.007 13.449 25.344 14.112 24.681 13.624 24.192"/><polygon id="Fill-20" points="19.008 24.855 18.345 24.192 17.856 24.681 18.519 25.344 17.856 26.007 18.345 26.496 19.008 25.833 19.671 26.496 20.16 26.007 19.497 25.344 20.16 24.681 19.671 24.192"/></g><g id="Group-21-Copy-9" fill="#FEB71E" transform="translate(97.000000, 112.000000)"><polygon id="Fill-1" points="3.971 0 2.52 1.451 1.069 0 0 1.069 1.451 2.52 0 3.971 1.069 5.04 2.52 3.589 3.971 5.04 5.04 3.971 3.59 2.52 5.04 1.069"/><polygon id="Fill-2" points="16.931 0 15.48 1.451 14.029 0 12.96 1.069 14.411 2.52 12.96 3.971 14.029 5.04 15.48 3.589 16.931 5.04 18 3.971 16.55 2.52 18 1.069"/><polygon id="Fill-3" points="29.891 0 28.439 1.451 26.989 0 25.92 1.069 27.37 2.52 25.92 3.971 26.989 5.04 28.439 3.589 29.891 5.04 30.96 3.971 29.509 2.52 30.96 1.069"/><polygon id="Fill-4" points="42.851 0 41.4 1.451 39.949 0 38.88 1.069 40.331 2.52 38.88 3.971 39.949 5.04 41.4 3.589 42.851 5.04 43.92 3.971 42.469 2.52 43.92 1.069"/><polygon id="Fill-5" points="2.52 15.851 1.069 14.4 0 15.469 1.451 16.92 0 18.371 1.069 19.44 2.52 17.989 3.971 19.44 5.04 18.371 3.589 16.92 5.04 15.469 3.971 14.4"/><polygon id="Fill-6" points="18 18.371 16.549 16.92 18 15.469 16.93 14.4 15.48 15.851 14.029 14.4 12.96 15.469 14.41 16.92 12.96 18.371 14.029 19.44 15.48 17.989 16.93 19.44"/><polygon id="Fill-7" points="30.96 18.371 29.509 16.92 30.96 15.469 29.891 14.4 28.44 15.851 26.989 14.4 25.92 15.469 27.37 16.92 25.92 18.371 26.989 19.44 28.44 17.989 29.891 19.44"/><polygon id="Fill-8" points="41.4 15.851 39.949 14.4 38.88 15.469 40.331 16.92 38.88 18.371 39.949 19.44 41.4 17.989 42.851 19.44 43.92 18.371 42.469 16.92 43.92 15.469 42.851 14.4"/><polygon id="Fill-9" points="2.52 28.091 1.069 26.64 0 27.709 1.451 29.16 0 30.611 1.069 31.68 2.52 30.229 3.971 31.68 5.04 30.611 3.589 29.16 5.04 27.709 3.971 26.64"/><polygon id="Fill-10" points="18 30.611 16.549 29.16 18 27.709 16.93 26.64 15.48 28.09 14.029 26.64 12.96 27.709 14.41 29.16 12.96 30.611 14.029 31.68 15.48 30.229 16.93 31.68"/><polygon id="Fill-11" points="30.96 30.611 29.509 29.16 30.96 27.709 29.891 26.64 28.44 28.09 26.989 26.64 25.92 27.709 27.37 29.16 25.92 30.611 26.989 31.68 28.44 30.229 29.891 31.68"/><polygon id="Fill-12" points="41.4 28.091 39.949 26.64 38.88 27.709 40.331 29.16 38.88 30.611 39.949 31.68 41.4 30.229 42.851 31.68 43.92 30.611 42.469 29.16 43.92 27.709 42.851 26.64"/><polygon id="Fill-13" points="2.52 42.491 1.069 41.04 0 42.109 1.451 43.56 0 45.011 1.069 46.08 2.52 44.629 3.971 46.08 5.04 45.011 3.589 43.56 5.04 42.109 3.971 41.04"/><polygon id="Fill-14" points="18 45.011 16.549 43.56 18 42.109 16.93 41.04 15.48 42.491 14.029 41.04 12.96 42.109 14.41 43.56 12.96 45.011 14.029 46.08 15.48 44.628 16.93 46.08"/><polygon id="Fill-15" points="30.96 45.011 29.509 43.56 30.96 42.109 29.891 41.04 28.44 42.491 26.989 41.04 25.92 42.109 27.37 43.56 25.92 45.011 26.989 46.08 28.44 44.628 29.891 46.08"/><polygon id="Fill-16" points="41.4 42.491 39.949 41.04 38.88 42.109 40.331 43.56 38.88 45.011 39.949 46.08 41.4 44.629 42.851 46.08 43.92 45.011 42.469 43.56 43.92 42.109 42.851 41.04"/><polygon id="Fill-17" points="2.52 54.011 1.069 52.56 0 53.629 1.451 55.08 0 56.531 1.069 57.6 2.52 56.149 3.971 57.6 5.04 56.531 3.589 55.08 5.04 53.629 3.971 52.56"/><polygon id="Fill-18" points="15.48 54.011 14.029 52.56 12.96 53.629 14.411 55.08 12.96 56.531 14.029 57.6 15.48 56.149 16.931 57.6 18 56.531 16.549 55.08 18 53.629 16.931 52.56"/><polygon id="Fill-19" points="28.44 54.011 26.989 52.56 25.92 53.629 27.371 55.08 25.92 56.531 26.989 57.6 28.44 56.149 29.892 57.6 30.96 56.531 29.509 55.08 30.96 53.629 29.892 52.56"/><polygon id="Fill-20" points="41.4 54.011 39.949 52.56 38.88 53.629 40.331 55.08 38.88 56.531 39.949 57.6 41.4 56.149 42.851 57.6 43.92 56.531 42.469 55.08 43.92 53.629 42.851 52.56"/></g></g></g></g></g></svg>