<svg xmlns="http://www.w3.org/2000/svg" xmlns:xlink="http://www.w3.org/1999/xlink" width="4" height="15" version="1.1" viewBox="0 0 4 15"><title>Group 4</title><desc>Created with Sketch.</desc><g id="Page-1" fill="none" fill-rule="evenodd" stroke="none" stroke-width="1"><g id="Contacts-List-Page-Design" fill="#D7DEE2" fill-rule="nonzero" transform="translate(-1234.000000, -220.000000)"><g id="List" transform="translate(205.000000, 213.000000)"><g id="Group-4" transform="translate(1029.000000, 7.000000)"><path id="Shape" d="M2,4 C3.10275,4 4,3.10275 4,2 C4,0.89725 3.10275,0 2,0 C0.89725,0 0,0.89725 0,2 C0,3.10275 0.89725,4 2,4 Z"/><path id="Shape" d="M2,11 C0.89725,11 0,11.89725 0,13 C0,14.10275 0.89725,15 2,15 C3.10275,15 4,14.10275 4,13 C4,11.89725 3.10275,11 2,11 Z"/><path id="Shape" d="M2,5.5 C0.89725,5.5 0,6.39725 0,7.5 C0,8.60275 0.89725,9.5 2,9.5 C3.10275,9.5 4,8.60275 4,7.5 C4,6.39725 3.10275,5.5 2,5.5 Z"/></g></g></g></g></svg>