<svg xmlns="http://www.w3.org/2000/svg" xmlns:xlink="http://www.w3.org/1999/xlink" width="10" height="10" version="1.1" viewBox="0 0 10 10"><title>Shape</title><desc>Created with Sketch.</desc><g id="Page-1" fill="none" fill-rule="evenodd" stroke="none" stroke-width="1"><g id="Action-Menu-for-Contacts-Page" fill="#FFF" fill-rule="nonzero" transform="translate(-1064.000000, -110.000000)"><path id="Shape" d="M1073.95729,110.277019 C1073.87678,110.092414 1073.73745,110.0001 1073.53863,110 L1064.46113,110 C1064.26258,110 1064.12306,110.092414 1064.04268,110.277019 C1063.96234,110.471077 1063.99541,110.6369 1064.14201,110.774166 L1067.63841,114.275536 L1067.63841,117.727205 C1067.63841,117.850465 1067.68334,117.95686 1067.77314,118.046961 L1069.58856,119.864973 C1069.67374,119.954875 1069.78008,120 1069.90778,120 C1069.96447,120 1070.02354,119.988084 1070.08501,119.964427 C1070.26948,119.883879 1070.36173,119.74425 1070.36173,119.545391 L1070.36173,114.275561 L1073.858,110.774191 C1074.00466,110.636925 1074.03764,110.471151 1073.95729,110.277019 Z"/></g></g></svg>